# xmcd
#
# Track frame offsets:
#	182
#	13687
#	27827
#	42330
#	56377
#	69775
#	84097
#	98362
#	112797
#	126460
#	140757
#	153610
#	166337
#	181065
#	195457
#	209207
#	223897
#	238180
#
# Disc length: 3362 seconds
#
# Revision: 1
# Processed by: cddbd v1.4PL0 Copyright (c) Steve Scherf et al.
# Submitted via: EasyCDDAExtractor 5.0.7
#
DISCID=f40d2012
DTITLE=Bing Crosby - Here Lies Love
DYEAR=1900
DGENRE=Musical
TTITLE0=The very thought of you
TTITLE1=Love thy neighbour
TTITLE2=June in January
TTITLE3=You've got me cryin' again
TTITLE4=May I?
TTITLE5=With every breath I take
TTITLE6=Temptation
TTITLE7=Let me call you Sweetheart
TTITLE8=Sweet and lovely
TTITLE9=Love in bloom
TTITLE10=You're getting to be a habit with me
TTITLE11=I love you truly
TTITLE12=Someday, sweetheart
TTITLE13=You're beautiful tonight, my dear
TTITLE14=Love is just around the corner
TTITLE15=Just a-wearyin' for you
TTITLE16=It must be true
TTITLE17=Here lies love
EXTD=
EXTT0=
EXTT1=
EXTT2=
EXTT3=
EXTT4=
EXTT5=
EXTT6=
EXTT7=
EXTT8=
EXTT9=
EXTT10=
EXTT11=
EXTT12=
EXTT13=
EXTT14=
EXTT15=
EXTT16=
EXTT17=
PLAYORDER=
